<svg xmlns="http://www.w3.org/2000/svg" viewBox="0 0 28.361 28.361"><path d="M28.36 19.595c0-.868-.665-1.57-1.49-1.57-.82.002-1.493.702-1.493 1.57v3.25l-6.018-6.02c-.583-.584-1.525-.584-2.107 0-.582.58-.582 1.526 0 2.108l5.99 5.987h-3.236c-.88.002-1.59.67-1.59 1.49 0 .825.71 1.49 1.59 1.49h6.76c.882 0 1.59-.664 1.594-1.49l-.008-.06c.003-.028.01-.058.01-.087v-6.668h-.002zM9 16.824l-6.015 6.02v-3.25c0-.867-.672-1.567-1.493-1.57-.824 0-1.49.703-1.49 1.57L0 26.265c0 .03.008.06.01.087l-.008.062c.002.825.712 1.49 1.592 1.49h6.762c.88 0 1.59-.666 1.59-1.49 0-.822-.71-1.49-1.59-1.49H5.12l5.99-5.988c.58-.582.58-1.527 0-2.11-.583-.583-1.526-.583-2.11 0zM19.36 11.535l6.017-6.017v3.25c0 .865.673 1.565 1.492 1.568.825 0 1.49-.703 1.49-1.568v-6.67c0-.03-.006-.06-.01-.086l.01-.062c-.003-.826-.712-1.49-1.592-1.49h-6.76c-.882 0-1.592.664-1.592 1.49 0 .82.71 1.49 1.59 1.492h3.236l-5.99 5.987c-.58.58-.58 1.523 0 2.104.583.586 1.525.586 2.107 0zM5.12 3.442h3.235c.88-.002 1.59-.67 1.59-1.492 0-.826-.71-1.49-1.59-1.49h-6.76C.714.46.004 1.123 0 1.95l.008.062c-.002.026-.01.055-.01.085L.002 8.77c0 .864.666 1.567 1.49 1.567.82-.003 1.493-.703 1.493-1.568V5.52L9 11.534c.584.585 1.527.585 2.11 0 .58-.58.58-1.524 0-2.105L5.12 3.442z"/></svg>