<svg width="161" height="33" viewBox="0 0 161 33" xmlns="http://www.w3.org/2000/svg" shape-rendering="geometricPrecision"><title>QUENCH</title><defs><filter x="-50%" y="-50%" width="200%" height="200%" filterUnits="objectBoundingBox" id="a"><feOffset dy="-1" in="SourceAlpha" result="shadowOffsetOuter1"/><feGaussianBlur in="shadowOffsetOuter1" result="shadowBlurOuter1"/><feColorMatrix values="0 0 0 0 0 0 0 0 0 0 0 0 0 0 0 0 0 0 0.174623528 0" in="shadowBlurOuter1" result="shadowMatrixOuter1"/><feMerge><feMergeNode in="shadowMatrixOuter1"/><feMergeNode in="SourceGraphic"/></feMerge></filter></defs><path d="M24.344 32.204c-.864.684-1.62.576-2.268-.252l-2.52-3.24a14.31 14.31 0 0 1-5.112.936c-3.888 0-7.344-1.584-9.9-4.104A13.784 13.784 0 0 1 .44 15.68c0-3.888 1.548-7.344 4.104-9.9s6.012-4.104 9.9-4.104a13.93 13.93 0 0 1 9.9 4.104c2.556 2.556 4.104 6.012 4.104 9.9 0 3.456-1.224 6.624-3.348 9.072l2.34 2.988c.648.864.54 1.62-.288 2.304l-2.808 2.16zm-10.908-11.34c-.684-.9-.576-1.656.252-2.304l2.808-2.196c.9-.612 1.656-.54 2.304.288l1.908 2.484c.612-1.044.9-2.196.9-3.456 0-1.98-.792-3.78-2.088-5.076a7.186 7.186 0 0 0-5.076-2.124c-1.98 0-3.78.828-5.076 2.124a7.186 7.186 0 0 0-2.124 5.076c0 1.98.828 3.78 2.124 5.076a7.155 7.155 0 0 0 5.076 2.088c.216 0 .396 0 .504-.036l-1.512-1.944zm43.212-4.356c-.036 3.312-1.26 6.624-3.384 9.072-2.16 2.448-5.22 4.068-8.964 4.068-3.6 0-6.66-1.476-8.82-3.888s-3.42-5.688-3.528-9.252V3.98c0-1.08.54-1.62 1.62-1.62h3.564c1.08 0 1.62.54 1.62 1.62v12.528c0 1.872.612 3.492 1.62 4.644 1.008 1.188 2.376 1.872 3.924 1.872 1.476 0 2.88-.684 3.888-1.872 1.008-1.152 1.62-2.772 1.62-4.644V3.98c0-1.08.54-1.62 1.62-1.62h3.6c1.08 0 1.62.54 1.62 1.62v12.528zM80.312 27.38c0 1.08-.54 1.62-1.62 1.62H63.248c-1.08 0-1.62-.54-1.62-1.62V3.98c0-1.08.54-1.62 1.62-1.62h15.444c1.08 0 1.62.54 1.62 1.62v3.564c0 1.08-.54 1.62-1.62 1.62h-10.26v3.348h7.56c1.08 0 1.62.54 1.62 1.62v3.06c0 1.08-.54 1.62-1.62 1.62h-7.56v3.384h10.26c1.08 0 1.62.54 1.62 1.62v3.564zM86.876 29c-1.08 0-1.62-.54-1.62-1.62V3.98c0-1.08.54-1.62 1.62-1.62h3.096c.828 0 1.512.36 1.98 1.044l8.316 12.06V3.98c0-1.08.54-1.62 1.62-1.62h3.564c1.08 0 1.62.54 1.62 1.62v23.4c0 1.08-.54 1.62-1.62 1.62h-3.096c-.828 0-1.512-.36-1.98-1.044L92.06 15.788V27.38c0 1.08-.54 1.62-1.62 1.62h-3.564zm37.992.684a13.93 13.93 0 0 1-9.9-4.104 13.93 13.93 0 0 1-4.104-9.9c0-3.888 1.548-7.344 4.104-9.9a13.93 13.93 0 0 1 9.9-4.104c3.744 0 7.236 1.44 9.864 4.032.756.756.648 1.584-.216 2.268l-2.844 2.232c-.828.684-1.44.576-2.268-.108-1.296-1.08-2.808-1.62-4.536-1.62-1.98 0-3.78.828-5.076 2.124a7.186 7.186 0 0 0-2.124 5.076c0 1.98.828 3.78 2.124 5.076a7.155 7.155 0 0 0 5.076 2.088c1.656 0 3.132-.504 4.392-1.512.828-.612 1.476-.756 2.304-.072l2.772 2.34c.828.684.936 1.548.108 2.304-2.592 2.448-5.976 3.78-9.576 3.78zm35.868-2.304c0 1.08-.54 1.62-1.62 1.62h-3.564c-1.08 0-1.62-.54-1.62-1.62V19.1h-7.38v8.28c0 1.08-.54 1.62-1.62 1.62h-3.564c-1.08 0-1.62-.54-1.62-1.62V3.98c0-1.08.54-1.62 1.62-1.62h3.564c1.08 0 1.62.54 1.62 1.62v8.28h7.38V3.98c0-1.08.54-1.62 1.62-1.62h3.564c1.08 0 1.62.54 1.62 1.62v23.4z" fill="#FFF" filter="url(#a)" fill-rule="evenodd"/></svg>