<?xml version="1.0" encoding="UTF-8" standalone="no"?>
<svg width="1280px" height="467px" viewBox="0 0 1280 467" version="1.1" xmlns="http://www.w3.org/2000/svg" xmlns:xlink="http://www.w3.org/1999/xlink" xmlns:sketch="http://www.bohemiancoding.com/sketch/ns">
    <!-- Generator: Sketch 3.3.1 (12002) - http://www.bohemiancoding.com/sketch -->
    <title>Waves</title>
    <desc>Created with Sketch.</desc>
    <defs>
        <path id="path-1" d="M1280,1.11910481e-13 L4.54747351e-13,1.11910481e-13 L4.54747351e-13,350.0001 C426.667,440.323031 853.333,440.323031 1280,350.0001 L1280,1.11910481e-13 Z"></path>
    </defs>
    <g id="Page-1" stroke="none" stroke-width="1" fill="none" fill-rule="evenodd" sketch:type="MSPage">
        <g id="Waves" sketch:type="MSLayerGroup" transform="translate(-1.000000, -1.000000)">
            <g id="Group" transform="translate(641.000000, 290.000000) rotate(-0.000000) translate(-641.000000, -290.000000) translate(1.000000, 112.000000)" fill="#78B1DA" sketch:type="MSShapeGroup">
                <path d="M1280,0 L0,0 L0,250.0001 C425.387,390.71463 852.051,390.859367 1280,250.0001 L1280,0 L1280,0 Z" id="Shape"></path>
            </g>
            <g id="Group" transform="translate(641.000000, 274.421120) rotate(-0.000000) translate(-641.000000, -274.421120) translate(1.000000, 106.000000)" fill="#266EA0" sketch:type="MSShapeGroup">
                <path d="M1280,0 L0,0 L0,250.0001 C426.708,365.656725 853.375,365.708173 1280,250.0001 L1280,0 L1280,0 Z" id="Shape"></path>
            </g>
            <g id="Group" transform="translate(641.500000, 210.000000) rotate(-0.000000) translate(-641.500000, -210.000000) translate(1.000000, 1.000000)">
                <mask id="mask-2" sketch:name="Mask" fill="white">
                    <use xlink:href="#path-1"></use>
                </mask>
                <use id="Mask" fill="#3583B8" sketch:type="MSShapeGroup" xlink:href="#path-1"></use>
            </g>
        </g>
    </g>
</svg>