<?xml version="1.0" encoding="UTF-8" standalone="no"?>
<svg width="161px" height="33px" viewBox="0 0 161 33" version="1.1" xmlns="http://www.w3.org/2000/svg" xmlns:xlink="http://www.w3.org/1999/xlink" shape-rendering="geometricPrecision">
    <!-- Generator: Sketch 3.3.1 (12002) - http://www.bohemiancoding.com/sketch -->
    <title>QUENCH</title>
    <desc>Created with Sketch.</desc>
    <defs>
        <filter x="-50%" y="-50%" width="200%" height="200%" filterUnits="objectBoundingBox" id="filter-1">
            <feOffset dx="0" dy="-1" in="SourceAlpha" result="shadowOffsetOuter1"></feOffset>
            <feGaussianBlur stdDeviation="0" in="shadowOffsetOuter1" result="shadowBlurOuter1"></feGaussianBlur>
            <feColorMatrix values="0 0 0 0 0   0 0 0 0 0   0 0 0 0 0  0 0 0 0.174623528 0" in="shadowBlurOuter1" type="matrix" result="shadowMatrixOuter1"></feColorMatrix>
            <feMerge>
                <feMergeNode in="shadowMatrixOuter1"></feMergeNode>
                <feMergeNode in="SourceGraphic"></feMergeNode>
            </feMerge>
        </filter>
    </defs>
    <g id="Page-1" stroke="none" stroke-width="1" fill="none" fill-rule="evenodd" sketch:type="MSPage">
        <path d="M24.344,32.204 C23.48,32.888 22.724,32.78 22.076,31.952 L19.556,28.712 C17.936,29.324 16.244,29.648 14.444,29.648 C10.556,29.648 7.1,28.064 4.544,25.544 C1.988,23.024 0.44,19.532 0.44,15.68 C0.44,11.792 1.988,8.336 4.544,5.78 C7.1,3.224 10.556,1.676 14.444,1.676 C18.296,1.676 21.788,3.224 24.344,5.78 C26.9,8.336 28.448,11.792 28.448,15.68 C28.448,19.136 27.224,22.304 25.1,24.752 L27.44,27.74 C28.088,28.604 27.98,29.36 27.152,30.044 L24.344,32.204 Z M13.436,20.864 C12.752,19.964 12.86,19.208 13.688,18.56 L16.496,16.364 C17.396,15.752 18.152,15.824 18.8,16.652 L20.708,19.136 C21.32,18.092 21.608,16.94 21.608,15.68 C21.608,13.7 20.816,11.9 19.52,10.604 C18.224,9.308 16.424,8.48 14.444,8.48 C12.464,8.48 10.664,9.308 9.368,10.604 C8.072,11.9 7.244,13.7 7.244,15.68 C7.244,17.66 8.072,19.46 9.368,20.756 C10.664,22.052 12.464,22.844 14.444,22.844 C14.66,22.844 14.84,22.844 14.948,22.808 L13.436,20.864 Z M56.648,16.508 C56.612,19.82 55.388,23.132 53.264,25.58 C51.104,28.028 48.044,29.648 44.3,29.648 C40.7,29.648 37.64,28.172 35.48,25.76 C33.32,23.348 32.06,20.072 31.952,16.508 L31.952,3.98 C31.952,2.9 32.492,2.36 33.572,2.36 L37.136,2.36 C38.216,2.36 38.756,2.9 38.756,3.98 L38.756,16.508 C38.756,18.38 39.368,20 40.376,21.152 C41.384,22.34 42.752,23.024 44.3,23.024 C45.776,23.024 47.18,22.34 48.188,21.152 C49.196,20 49.808,18.38 49.808,16.508 L49.808,3.98 C49.808,2.9 50.348,2.36 51.428,2.36 L55.028,2.36 C56.108,2.36 56.648,2.9 56.648,3.98 L56.648,16.508 Z M80.312,27.38 C80.312,28.46 79.772,29 78.692,29 L63.248,29 C62.168,29 61.628,28.46 61.628,27.38 L61.628,3.98 C61.628,2.9 62.168,2.36 63.248,2.36 L78.692,2.36 C79.772,2.36 80.312,2.9 80.312,3.98 L80.312,7.544 C80.312,8.624 79.772,9.164 78.692,9.164 L68.432,9.164 L68.432,12.512 L75.992,12.512 C77.072,12.512 77.612,13.052 77.612,14.132 L77.612,17.192 C77.612,18.272 77.072,18.812 75.992,18.812 L68.432,18.812 L68.432,22.196 L78.692,22.196 C79.772,22.196 80.312,22.736 80.312,23.816 L80.312,27.38 Z M86.8759999,29 C85.7959999,29 85.2559999,28.46 85.2559999,27.38 L85.2559999,3.98 C85.2559999,2.9 85.7959999,2.36 86.8759999,2.36 L89.9719999,2.36 C90.7999999,2.36 91.4839999,2.72 91.9519999,3.404 L100.268,15.464 L100.268,3.98 C100.268,2.9 100.808,2.36 101.888,2.36 L105.452,2.36 C106.532,2.36 107.072,2.9 107.072,3.98 L107.072,27.38 C107.072,28.46 106.532,29 105.452,29 L102.356,29 C101.528,29 100.844,28.64 100.376,27.956 L92.0599999,15.788 L92.0599999,27.38 C92.0599999,28.46 91.5199999,29 90.4399999,29 L86.8759999,29 Z M124.868,29.684 C121.016,29.684 117.524,28.136 114.968,25.58 C112.412,23.024 110.864,19.532 110.864,15.68 C110.864,11.792 112.412,8.336 114.968,5.78 C117.524,3.224 121.016,1.676 124.868,1.676 C128.612,1.676 132.104,3.116 134.732,5.708 C135.488,6.464 135.38,7.292 134.516,7.976 L131.672,10.208 C130.844,10.892 130.232,10.784 129.404,10.1 C128.108,9.02 126.596,8.48 124.868,8.48 C122.888,8.48 121.088,9.308 119.792,10.604 C118.496,11.9 117.668,13.7 117.668,15.68 C117.668,17.66 118.496,19.46 119.792,20.756 C121.088,22.052 122.888,22.844 124.868,22.844 C126.524,22.844 128,22.34 129.26,21.332 C130.088,20.72 130.736,20.576 131.564,21.26 L134.336,23.6 C135.164,24.284 135.272,25.148 134.444,25.904 C131.852,28.352 128.468,29.684 124.868,29.684 L124.868,29.684 Z M160.736,27.38 C160.736,28.46 160.196,29 159.116,29 L155.552,29 C154.472,29 153.932,28.46 153.932,27.38 L153.932,19.1 L146.552,19.1 L146.552,27.38 C146.552,28.46 146.012,29 144.932,29 L141.368,29 C140.288,29 139.748,28.46 139.748,27.38 L139.748,3.98 C139.748,2.9 140.288,2.36 141.368,2.36 L144.932,2.36 C146.012,2.36 146.552,2.9 146.552,3.98 L146.552,12.26 L153.932,12.26 L153.932,3.98 C153.932,2.9 154.472,2.36 155.552,2.36 L159.116,2.36 C160.196,2.36 160.736,2.9 160.736,3.98 L160.736,27.38 Z" id="QUENCH" fill="#FFFFFF" filter="url(#filter-1)" sketch:type="MSShapeGroup"></path>
    </g>
</svg>